PathFileType	4	(X/Y/Z)	l_comf_01_markers.trc
DataRate	CameraRate	NumFrames	NumMarkers	Units	OrigDataRate	OrigDataStartFrame	OrigNumFrames
100.000000	100.000000	4	96	mm	100.000000	608	973
Frame#	Time	Torso1			Torso2			Torso3			RFemur1			RFemur2			RFemur3			RFemur4			LFemur1			LFemur2			LFemur4			RTibia1			RTibia2			RTibia3			RTibia4			LTibia2			LTibia3			LTibia4			LFoot1			LFoot2			LFoot3			RFoot2			RFoot3			LFemur3			LTibia1			RFoot1			Pelvis3			Pelvis4			Torso4			Pelvis1			Pelvis2			*30			*31			*32			*33			*34			*35			*36			*37			*38			*39			*40			*41			*42			*43			*44			*45			*46			*47			*48			*49			*50			*51			*52			*53			*54			*55			*56			*57			*58			*59			*60			*61			*62			*63			*64			Pelvis_RFemur_score			Pelvis_LFemur_score			RFemur_RTibia_score			RFemur_RTibia_sara			LFemur_LTibia_score			LFemur_LTibia_sara			RKnee			LKnee			RTibia_RFoot_score			LTibia_LFoot_score			USERMO0			USERMO1			USERMO2			USERMO3			USERMO4			USERMO5			USERMO6			USERMO7			USERMO8			USERMO9			USERMO10			USERMO11			USERMO12			USERMO13			USERMO14			USERMO15			USERMO16			USERMO17			USERMO18			USERMO19			USERMO20			
		X1	Y1	Z1	X2	Y2	Z2	X3	Y3	Z3	X4	Y4	Z4	X5	Y5	Z5	X6	Y6	Z6	X7	Y7	Z7	X8	Y8	Z8	X9	Y9	Z9	X10	Y10	Z10	X11	Y11	Z11	X12	Y12	Z12	X13	Y13	Z13	X14	Y14	Z14	X15	Y15	Z15	X16	Y16	Z16	X17	Y17	Z17	X18	Y18	Z18	X19	Y19	Z19	X20	Y20	Z20	X21	Y21	Z21	X22	Y22	Z22	X23	Y23	Z23	X24	Y24	Z24	X25	Y25	Z25	X26	Y26	Z26	X27	Y27	Z27	X28	Y28	Z28	X29	Y29	Z29	X30	Y30	Z30	X31	Y31	Z31	X32	Y32	Z32	X33	Y33	Z33	X34	Y34	Z34	X35	Y35	Z35	X36	Y36	Z36	X37	Y37	Z37	X38	Y38	Z38	X39	Y39	Z39	X40	Y40	Z40	X41	Y41	Z41	X42	Y42	Z42	X43	Y43	Z43	X44	Y44	Z44	X45	Y45	Z45	X46	Y46	Z46	X47	Y47	Z47	X48	Y48	Z48	X49	Y49	Z49	X50	Y50	Z50	X51	Y51	Z51	X52	Y52	Z52	X53	Y53	Z53	X54	Y54	Z54	X55	Y55	Z55	X56	Y56	Z56	X57	Y57	Z57	X58	Y58	Z58	X59	Y59	Z59	X60	Y60	Z60	X61	Y61	Z61	X62	Y62	Z62	X63	Y63	Z63	X64	Y64	Z64	X65	Y65	Z65	X66	Y66	Z66	X67	Y67	Z67	X68	Y68	Z68	X69	Y69	Z69	X70	Y70	Z70	X71	Y71	Z71	X72	Y72	Z72	X73	Y73	Z73	X74	Y74	Z74	X75	Y75	Z75	X76	Y76	Z76	X77	Y77	Z77	X78	Y78	Z78	X79	Y79	Z79	X80	Y80	Z80	X81	Y81	Z81	X82	Y82	Z82	X83	Y83	Z83	X84	Y84	Z84	X85	Y85	Z85	X86	Y86	Z86	X87	Y87	Z87	X88	Y88	Z88	X89	Y89	Z89	X90	Y90	Z90	X91	Y91	Z91	X92	Y92	Z92	X93	Y93	Z93	X94	Y94	Z94	X95	Y95	Z95	X96	Y96	Z96	

609	6.08	306.1248168945312	-681.4047241210938	1381.35107421875	476.9662170410156	-734.7535400390625	1403.6748046875	130.4348449707031	-740.0474853515625	1427.697021484375	459.1066284179688	-663.8566284179688	612.7333984375	442.7076721191406	-623.7887573242188	520.69580078125	451.8360290527344	-618.1461791992188	574.6632690429688	456.2008972167969	-584.1007080078125	590.2073974609375	150.0584564208984	-834.224365234375	632.8699951171875	145.2228546142578	-777.1024780273438	588.5409545898438	148.5054321289062	-819.3076171875	595.4014282226562	441.727783203125	-576.5386962890625	353.8313903808594	439.4196166992188	-568.8362426757812	412.1893920898438	434.7650451660156	-555.302978515625	311.3336791992188	433.0208129882812	-618.2720947265625	350.5693664550781	151.5703277587891	-929.7078247070312	348.87255859375	163.6314697265625	-962.57763671875	292.482666015625	158.2338409423828	-883.9845581054688	370.4864196777344	253.4496765136719	-1191.200317382812	161.4467620849609	268.6390991210938	-1030.849243164062	18.92426872253418	217.5974273681641	-1071.361938476562	17.70063781738281	365.3976440429688	-368.9133605957031	29.57785415649414	411.6876831054688	-414.9899597167969	23.65034103393555	166.7814331054688	-844.9407958984375	528.3131103515625	155.1096038818359	-950.9415283203125	391.9024353027344	338.0275268554688	-602.6730346679688	24.92256546020508	363.2356872558594	-879.6024780273438	876.9251708984375	294.2620544433594	-890.3495483398438	873.8381958007812	310.44580078125	-814.4030151367188	1458.81640625	276.6533203125	-868.4420776367188	985.55078125	355.8273010253906	-855.0661010742188	992.4121704101562	nan	nan	nan	nan	nan	nan	1584.18994140625	1909.35791015625	704.2978515625	2072.653076171875	1753.474975585938	494.1089782714844	nan	nan	nan	nan	nan	nan	nan	nan	nan	nan	nan	nan	1497.728515625	1841.720336914062	614.3543090820312	nan	nan	nan	1445.631958007812	1364.179565429688	518.2296752929688	nan	nan	nan	1628.128540039062	1821.33251953125	657.928955078125	nan	nan	nan	nan	nan	nan	nan	nan	nan	nan	nan	nan	nan	nan	nan	nan	nan	nan	nan	nan	nan	nan	nan	nan	nan	nan	nan	nan	nan	nan	nan	nan	nan	nan	nan	nan	nan	nan	nan	nan	nan	nan	nan	nan	nan	nan	nan	nan	nan	nan	nan	nan	nan	nan	nan	nan	nan	nan	nan	nan	nan	nan	nan	nan	nan	nan	426.9484252929688	-732.0264282226562	872.4886474609375	194.5170135498047	-760.6679077148438	852.6625366210938	391.7348937988281	-568.6693725585938	458.3476257324219	292.7179870605469	-572.55810546875	471.7838134765625	222.8032073974609	-842.2435913085938	424.6264343261719	322.1280822753906	-831.7034301757812	429.471435546875	391.7349853515625	-568.6690063476562	458.3479919433594	222.8029937744141	-842.2440185546875	424.6260070800781	286.4017639160156	-574.363525390625	10.33016586303711	226.2734222412109	-1189.234008789062	130.8445281982422	2.386828184127808	1.447266817092896	-2.276045560836792	0.1537085324525833	-0.8188133239746094	0.5831238031387329	0.1000000014901161	0.1000000014901161	0.1000000014901161	-0.9918485879898071	0.1738965660333633	1.590988993644714	0.2465620785951614	-1.097803831100464	0.06602389365434647	0.1000000014901161	0.1000000014901161	0.1000000014901161	-2.046521663665771	-0.7745539546012878	2.067723035812378	0.1567723751068115	-0.9477802515029907	0.3444267511367798	0.1000000014901161	0.1000000014901161	0.1000000014901161	-1.775735378265381	-0.2120615243911743	0.04482829570770264	0.3319194316864014	-0.8677092790603638	0.9517074823379517	0.1000000014901161	0.1000000014901161	0.1000000014901161	0.3928655683994293	1.732518553733826	0.2445856183767319	0.4514291882514954	-0.6352783441543579	0.5693020224571228	0.1000000014901161	0.1000000014901161	0.1000000014901161	2.411831140518188	2.145465850830078	-0.08313801884651184	0.3717043101787567	-0.4621921181678772	0.02605025470256805	0.1000000014901161	0.1000000014901161	0.1000000014901161	0.09643616527318954	-1.56709086894989	0.3117396831512451	0.4385648369789124	-0.5670045018196106	0.3590594828128815	0.1000000014901161	0.1000000014901161	0.1000000014901161	
610	6.09	307.5482177734375	-665.832763671875	1383.576171875	478.3686218261719	-718.7527465820312	1405.761352539062	132.3630065917969	-724.716796875	1429.977172851562	461.5686645507812	-648.1116943359375	614.377197265625	445.5740661621094	-607.2119140625	522.6445922851562	455.0351257324219	-601.99072265625	577.2612915039062	456.7685852050781	-568.0399169921875	593.0880126953125	150.5266723632812	-810.9007568359375	630.614990234375	144.9691314697266	-752.0894165039062	588.1282958984375	148.4762573242188	-794.7725219726562	593.8110961914062	442.4350280761719	-562.4109497070312	353.9531555175781	438.5447692871094	-553.61474609375	412.0192260742188	434.147216796875	-543.0699462890625	310.8966369628906	440.2401428222656	-604.5244140625	351.6997985839844	148.8499450683594	-904.4682006835938	351.9373168945312	160.5533294677734	-939.7559204101562	296.7017517089844	155.1721801757812	-857.653076171875	371.139404296875	250.4227600097656	-1169.58056640625	177.1357269287109	268.02783203125	-1027.725219726562	19.38729667663574	219.1924743652344	-1067.33837890625	21.03417778015137	363.3381958007812	-367.3229064941406	26.74875450134277	411.873046875	-413.99072265625	22.94610023498535	165.8179473876953	-817.9893188476562	525.6929321289062	153.7378540039062	-923.6996459960938	395.7509460449219	338.1841125488281	-602.2260131835938	25.23732566833496	364.34716796875	-863.46337890625	879.150634765625	295.3270263671875	-873.6704711914062	875.0485229492188	312.1519470214844	-798.9808349609375	1460.312866210938	276.6530151367188	-852.7796020507812	986.94091796875	355.8582458496094	-839.6205444335938	994.6755981445312	-3557.184814453125	-673.5756225585938	994.7117919921875	-3552.24609375	-669.36474609375	971.7125244140625	1584.199829101562	1909.3623046875	704.3499145507812	nan	nan	nan	1627.4140625	1802.639892578125	662.87109375	nan	nan	nan	nan	nan	nan	nan	nan	nan	1497.767578125	1841.778198242188	614.3966674804688	nan	nan	nan	1445.671875	1364.178344726562	518.2457275390625	nan	nan	nan	1628.127563476562	1821.335693359375	657.9356079101562	nan	nan	nan	nan	nan	nan	nan	nan	nan	nan	nan	nan	nan	nan	nan	nan	nan	nan	nan	nan	nan	nan	nan	nan	nan	nan	nan	nan	nan	nan	nan	nan	nan	nan	nan	nan	nan	nan	nan	nan	nan	nan	nan	nan	nan	nan	nan	nan	nan	nan	nan	nan	nan	nan	nan	nan	nan	nan	nan	nan	nan	nan	nan	nan	nan	nan	428.0675354003906	-718.5650634765625	874.573486328125	197.1153411865234	-743.905029296875	853.0584716796875	392.2565612792969	-555.6806640625	458.8730773925781	293.6695251464844	-567.6259765625	470.6162414550781	220.2121124267578	-812.1591186523438	421.7132568359375	319.4969482421875	-800.6287231445312	424.8064880371094	392.2569885253906	-555.6810302734375	458.8729858398438	220.2120056152344	-812.1589965820312	421.7130126953125	291.1348266601562	-581.66845703125	8.240353584289551	224.1617736816406	-1172.107788085938	145.8201446533203	2.38012170791626	1.496299266815186	-2.292301416397095	0.1534710973501205	-0.7937518358230591	0.5813945531845093	0.1000000014901161	0.1000000014901161	0.1000000014901161	-1.106552839279175	0.2380292117595673	1.588184952735901	0.2458810359239578	-1.088214755058289	0.07251907140016556	0.1000000014901161	0.1000000014901161	0.1000000014901161	-2.046386241912842	-0.7524831295013428	2.132376432418823	0.1543930768966675	-0.9226605296134949	0.3481245040893555	0.1000000014901161	0.1000000014901161	0.1000000014901161	-1.768617033958435	-0.2155564874410629	0.03126217797398567	0.3322890996932983	-0.8519303202629089	0.9536239504814148	0.1000000014901161	0.1000000014901161	0.1000000014901161	0.3776620924472809	1.721315383911133	0.2793242633342743	0.4541337490081787	-0.6190864443778992	0.5713678598403931	0.1000000014901161	0.1000000014901161	0.1000000014901161	2.380358934402466	2.130467653274536	-0.06348065286874771	0.3711317777633667	-0.4611798822879791	0.02497739531099796	0.1000000014901161	0.1000000014901161	0.1000000014901161	0.1844832003116608	-1.577853679656982	0.4408474862575531	0.4383649528026581	-0.5530668497085571	0.3589245080947876	0.1000000014901161	0.1000000014901161	0.1000000014901161	
611	6.100000000000001	308.8110046386719	-650.38330078125	1385.721923828125	479.5964050292969	-702.7237548828125	1407.907958984375	134.1654815673828	-709.6087646484375	1432.235107421875	463.6078491210938	-632.7881469726562	615.818603515625	447.5647277832031	-590.8106689453125	524.6234741210938	456.5842590332031	-585.974853515625	579.1638793945312	457.772216796875	-552.5388793945312	595.5228271484375	150.1703186035156	-786.49169921875	627.6710205078125	144.7696228027344	-725.8961791992188	588.3051147460938	147.6625518798828	-768.6622314453125	591.6793212890625	443.1473083496094	-550.291015625	353.826416015625	438.3202514648438	-541.146240234375	411.6552734375	433.5389404296875	-531.8277587890625	310.35107421875	443.5866394042969	-592.0105590820312	351.5674743652344	146.7147674560547	-877.7349243164062	354.4931640625	158.1032257080078	-915.160400390625	300.74658203125	152.3741912841797	-829.9400024414062	371.5123901367188	244.2408294677734	-1147.462646484375	191.3631134033203	266.5623474121094	-1019.247863769531	19.59578514099121	219.7007446289062	-1055.546142578125	28.05347442626953	363.0709533691406	-366.6132202148438	25.64703750610352	412.3167724609375	-413.7644653320312	22.63064575195312	163.5335235595703	-789.4475708007812	522.6736450195312	152.3352355957031	-894.93994140625	398.9599304199219	338.3488464355469	-601.99462890625	25.4491024017334	365.5115966796875	-847.6762084960938	881.317138671875	296.4272766113281	-858.0470581054688	876.6024780273438	313.867919921875	-783.7027587890625	1461.849609375	276.9237060546875	-837.418701171875	988.4104614257812	355.9971008300781	-824.289794921875	996.9031372070312	nan	nan	nan	nan	nan	nan	1584.186157226562	1909.328369140625	704.3126220703125	2072.658935546875	1753.6162109375	493.9068908691406	nan	nan	nan	nan	nan	nan	nan	nan	nan	nan	nan	nan	1497.696533203125	1841.710327148438	614.3023071289062	nan	nan	nan	1445.6201171875	1364.08837890625	518.2368774414062	nan	nan	nan	1628.1259765625	1821.348510742188	657.92529296875	nan	nan	nan	nan	nan	nan	nan	nan	nan	nan	nan	nan	nan	nan	nan	nan	nan	nan	nan	nan	nan	nan	nan	nan	nan	nan	nan	nan	nan	nan	nan	nan	nan	nan	nan	nan	nan	nan	nan	nan	nan	nan	nan	nan	nan	nan	nan	nan	nan	nan	nan	nan	nan	nan	nan	nan	nan	nan	nan	nan	nan	nan	nan	nan	nan	nan	429.3840637207031	-704.9827880859375	876.2384033203125	199.8834533691406	-729.0186157226562	853.1553955078125	393.0422668457031	-542.6160888671875	459.7761840820312	294.9746704101562	-558.5687866210938	471.1015014648438	216.8269653320312	-780.6793212890625	418.6050415039062	316.1581115722656	-769.2306518554688	420.1046752929688	393.0419921875	-542.6160278320312	459.7760009765625	216.8269958496094	-780.6790161132812	418.6050109863281	293.1055908203125	-581.6315307617188	7.735899925231934	220.6754760742188	-1151.705200195312	159.6271667480469	2.395301818847656	1.546769618988037	-2.314744710922241	0.1525068730115891	-0.7673174738883972	0.5794084072113037	0.1000000014901161	0.1000000014901161	0.1000000014901161	-1.149532556533813	0.3379053175449371	1.547781109809875	0.2435013204813004	-1.074085593223572	0.07967079430818558	0.1000000014901161	0.1000000014901161	0.1000000014901161	-2.051930904388428	-0.7291557788848877	2.187969446182251	0.1523845046758652	-0.8959481716156006	0.3513895273208618	0.1000000014901161	0.1000000014901161	0.1000000014901161	-1.765776038169861	-0.2222359329462051	0.02432948537170887	0.3327912390232086	-0.8364585638046265	0.9555704593658447	0.1000000014901161	0.1000000014901161	0.1000000014901161	0.3742752075195312	1.717718243598938	0.302530437707901	0.4559948146343231	-0.6032069325447083	0.5731302499771118	0.1000000014901161	0.1000000014901161	0.1000000014901161	2.370833158493042	2.123202323913574	-0.05804599821567535	0.3712455332279205	-0.4607907831668854	0.02457559667527676	0.1000000014901161	0.1000000014901161	0.1000000014901161	0.231322854757309	-1.576098322868347	0.4995876550674438	0.4383075535297394	-0.5410281419754028	0.3585298955440521	0.1000000014901161	0.1000000014901161	0.1000000014901161	
612	6.11	309.6994934082031	-634.9804077148438	1387.661987304688	480.5203247070312	-686.575927734375	1409.965087890625	135.6954345703125	-694.8018798828125	1434.35888671875	465.1576232910156	-618.8898315429688	616.9878540039062	447.9576721191406	-576.2823486328125	526.1278686523438	458.5873718261719	-571.9151611328125	580.9512329101562	458.7262878417969	-538.6290893554688	597.1128540039062	149.0672149658203	-761.0453491210938	624.402099609375	145.3339538574219	-698.6414794921875	587.9464721679688	146.6264801025391	-741.6293334960938	589.6302490234375	443.0138549804688	-540.8477172851562	353.946533203125	438.4939575195312	-531.45654296875	411.7286376953125	431.7872924804688	-523.2603149414062	310.1928100585938	445.0300903320312	-582.6838989257812	352.1399230957031	145.1472625732422	-849.0901489257812	356.1646118164062	156.3115081787109	-888.643310546875	303.8488464355469	151.6669616699219	-801.3787231445312	371.2117614746094	238.616455078125	-1124.08349609375	203.6881866455078	261.8448486328125	-1005.725524902344	21.09770393371582	220.8544464111328	-1037.317138671875	36.11066818237305	362.1473999023438	-365.9427795410156	25.29403495788574	412.2689819335938	-413.5338745117188	22.65073204040527	160.4357604980469	-759.562744140625	519.3533935546875	150.4873657226562	-864.7999267578125	401.2759704589844	338.4188537597656	-601.8778686523438	25.62625503540039	366.6216430664062	-832.1116943359375	883.326171875	297.4658813476562	-842.4865112304688	878.0211181640625	315.096923828125	-768.461181640625	1463.420043945312	277.2511291503906	-822.249755859375	989.8034057617188	356.2843933105469	-809.1224365234375	998.9081420898438	nan	nan	nan	nan	nan	nan	1584.155639648438	1909.3388671875	704.327880859375	2072.743408203125	1753.38671875	493.9230651855469	nan	nan	nan	nan	nan	nan	nan	nan	nan	nan	nan	nan	1497.824462890625	1841.779174804688	614.4127807617188	nan	nan	nan	1445.651611328125	1364.100708007812	518.1852416992188	nan	nan	nan	1628.1259765625	1821.328247070312	657.958984375	nan	nan	nan	nan	nan	nan	nan	nan	nan	nan	nan	nan	nan	nan	nan	nan	nan	nan	nan	nan	nan	nan	nan	nan	nan	nan	nan	nan	nan	nan	nan	nan	nan	nan	nan	nan	nan	nan	nan	nan	nan	nan	nan	nan	nan	nan	nan	nan	nan	nan	nan	nan	nan	nan	nan	nan	nan	nan	nan	nan	nan	nan	nan	nan	nan	nan	432.2437744140625	-691.166015625	878.2353515625	202.9288330078125	-714.6759643554688	852.8211669921875	393.5463256835938	-531.1595458984375	461.4447326660156	296.0209350585938	-549.279541015625	474.1124267578125	214.4640502929688	-749.5940551757812	415.8395690917969	314.084228515625	-740.9144287109375	416.5359497070312	393.5459899902344	-531.1599731445312	461.4450073242188	214.4640045166016	-749.593994140625	415.8399963378906	291.340087890625	-581.7548217773438	8.961487770080566	215.419921875	-1129.508911132812	171.5445251464844	2.44078516960144	1.584855079650879	-2.340359210968018	0.151293620467186	-0.7398021817207336	0.5771583318710327	0.1000000014901161	0.1000000014901161	0.1000000014901161	-1.164170861244202	0.4170717298984528	1.513414978981018	0.2404385954141617	-1.055708765983582	0.08696552366018295	0.1000000014901161	0.1000000014901161	0.1000000014901161	-2.072340726852417	-0.6757126450538635	2.205902338027954	0.1506626605987549	-0.8676546216011047	0.3536966443061829	0.1000000014901161	0.1000000014901161	0.1000000014901161	-1.762591242790222	-0.2272794395685196	0.01788585633039474	0.3333441615104675	-0.8211616277694702	0.9573581218719482	0.1000000014901161	0.1000000014901161	0.1000000014901161	0.3788076639175415	1.728250503540039	0.3090304732322693	0.4571973383426666	-0.5890711545944214	0.5745628476142883	0.1000000014901161	0.1000000014901161	0.1000000014901161	2.363376140594482	2.122740507125854	-0.05452155321836472	0.3709450960159302	-0.4604515433311462	0.02452367544174194	0.1000000014901161	0.1000000014901161	0.1000000014901161	0.2604666352272034	-1.556544780731201	0.5375004410743713	0.4377255141735077	-0.5318223237991333	0.3585757613182068	0.1000000014901161	0.1000000014901161	0.1000000014901161	
